<?xml version="1.0" standalone="no"?>
<!DOCTYPE svg PUBLIC "-//W3C//DTD SVG 20010904//EN"
 "http://www.w3.org/TR/2001/REC-SVG-20010904/DTD/svg10.dtd">
<svg version="1.0" xmlns="http://www.w3.org/2000/svg"
 width="700.000000pt" height="700.000000pt" viewBox="0 0 700.000000 700.000000"
 preserveAspectRatio="xMidYMid meet">
<metadata>
Created by potrace 1.11, written by Peter Selinger 2001-2013
</metadata>
<g transform="translate(0.000000,700.000000) scale(0.100000,-0.100000)"
fill="#000000" stroke="none">
<path d="M0 3500 l0 -3500 3500 0 3500 0 0 3500 0 3500 -3500 0 -3500 0 0
-3500z m4000 2666 c512 -42 836 -115 1119 -252 200 -95 340 -195 495 -350 290
-291 460 -657 521 -1119 21 -159 21 -499 0 -682 -48 -422 -176 -813 -383
-1178 -270 -474 -696 -881 -1173 -1121 -446 -223 -889 -314 -1724 -354 -192
-9 -2045 -15 -2045 -6 0 4 964 4953 981 5034 l11 54 1001 -5 c810 -3 1039 -7
1197 -21z"/>
<path d="M2911 5148 c-6 -29 -141 -719 -301 -1533 -159 -814 -293 -1493 -296
-1509 l-6 -29 363 6 c467 7 635 29 903 118 601 201 1022 668 1156 1287 68 314
66 691 -6 938 -103 357 -365 603 -755 708 -200 54 -239 58 -656 63 l-391 5
-11 -54z"/>
</g>
</svg>
